<mxfile host="app.diagrams.net" modified="2023-11-02T06:02:44.527Z" agent="Mozilla/5.0 (Macintosh; Intel Mac OS X 10_15_7) AppleWebKit/605.1.15 (KHTML, like Gecko) Version/17.0 Safari/605.1.15" etag="TN9UNMH7ylYsCUuHRrbt" version="22.0.8" type="github">
  <diagram name="第 1 页" id="UeuGyMMsbRO4vuTa8S8b">
    <mxGraphModel dx="1024" dy="1725" grid="1" gridSize="10" guides="1" tooltips="1" connect="1" arrows="1" fold="1" page="1" pageScale="1" pageWidth="827" pageHeight="1169" math="0" shadow="0">
      <root>
        <mxCell id="0" />
        <mxCell id="1" parent="0" />
        <mxCell id="XKu2ODZ-iZN_NIDihDhz-56" value="" style="rounded=0;whiteSpace=wrap;html=1;dashed=1;fillColor=none;dashPattern=8 8;" vertex="1" parent="1">
          <mxGeometry x="217" y="-370" width="390" height="180" as="geometry" />
        </mxCell>
        <mxCell id="XKu2ODZ-iZN_NIDihDhz-1" value="" style="group;fillColor=#CEE5CB;" vertex="1" connectable="0" parent="1">
          <mxGeometry x="100" y="-710" width="40" height="320" as="geometry" />
        </mxCell>
        <mxCell id="XKu2ODZ-iZN_NIDihDhz-2" value="" style="rounded=0;whiteSpace=wrap;html=1;container=0;fillColor=#CEE5CB;" vertex="1" parent="XKu2ODZ-iZN_NIDihDhz-1">
          <mxGeometry width="40" height="40.00016129097293" as="geometry" />
        </mxCell>
        <mxCell id="XKu2ODZ-iZN_NIDihDhz-3" value="想" style="rounded=0;whiteSpace=wrap;html=1;container=0;fillColor=#CEE5CB;" vertex="1" parent="XKu2ODZ-iZN_NIDihDhz-1">
          <mxGeometry y="40.000161290973004" width="40" height="40.00016129097293" as="geometry" />
        </mxCell>
        <mxCell id="XKu2ODZ-iZN_NIDihDhz-4" value="我&lt;span style=&quot;white-space: pre;&quot;&gt;&lt;br&gt;&lt;/span&gt;" style="rounded=0;whiteSpace=wrap;html=1;container=0;fillColor=#CEE5CB;" vertex="1" parent="XKu2ODZ-iZN_NIDihDhz-1">
          <mxGeometry width="40" height="40.00016129097293" as="geometry" />
        </mxCell>
        <mxCell id="XKu2ODZ-iZN_NIDihDhz-5" value="咨" style="rounded=0;whiteSpace=wrap;html=1;container=0;fillColor=#CEE5CB;" vertex="1" parent="XKu2ODZ-iZN_NIDihDhz-1">
          <mxGeometry y="80.0003225819459" width="40" height="40.00016129097293" as="geometry" />
        </mxCell>
        <mxCell id="XKu2ODZ-iZN_NIDihDhz-6" value="询" style="rounded=0;whiteSpace=wrap;html=1;container=0;fillColor=#CEE5CB;" vertex="1" parent="XKu2ODZ-iZN_NIDihDhz-1">
          <mxGeometry y="120.00048387291879" width="40" height="40.00016129097293" as="geometry" />
        </mxCell>
        <mxCell id="XKu2ODZ-iZN_NIDihDhz-7" value="" style="rounded=0;whiteSpace=wrap;html=1;container=0;fillColor=#CEE5CB;" vertex="1" parent="XKu2ODZ-iZN_NIDihDhz-1">
          <mxGeometry y="160.0006451638918" width="40" height="40.00016129097293" as="geometry" />
        </mxCell>
        <mxCell id="XKu2ODZ-iZN_NIDihDhz-8" value="表" style="rounded=0;whiteSpace=wrap;html=1;container=0;fillColor=#CEE5CB;" vertex="1" parent="XKu2ODZ-iZN_NIDihDhz-1">
          <mxGeometry y="200.0008064548647" width="40" height="40.00016129097293" as="geometry" />
        </mxCell>
        <mxCell id="XKu2ODZ-iZN_NIDihDhz-9" value="电" style="rounded=0;whiteSpace=wrap;html=1;container=0;fillColor=#CEE5CB;" vertex="1" parent="XKu2ODZ-iZN_NIDihDhz-1">
          <mxGeometry y="160.0006451638918" width="40" height="40.00016129097293" as="geometry" />
        </mxCell>
        <mxCell id="XKu2ODZ-iZN_NIDihDhz-10" value="改" style="rounded=0;whiteSpace=wrap;html=1;container=0;fillColor=#CEE5CB;" vertex="1" parent="XKu2ODZ-iZN_NIDihDhz-1">
          <mxGeometry y="240.00096774583758" width="40" height="40.00016129097293" as="geometry" />
        </mxCell>
        <mxCell id="XKu2ODZ-iZN_NIDihDhz-11" value="装" style="rounded=0;whiteSpace=wrap;html=1;container=0;fillColor=#CEE5CB;" vertex="1" parent="XKu2ODZ-iZN_NIDihDhz-1">
          <mxGeometry y="279.99983870902696" width="40" height="40.00016129097293" as="geometry" />
        </mxCell>
        <mxCell id="XKu2ODZ-iZN_NIDihDhz-12" value="" style="group;fillColor=#F7CFD3;" vertex="1" connectable="0" parent="1">
          <mxGeometry x="510" y="-670" width="40" height="240" as="geometry" />
        </mxCell>
        <mxCell id="XKu2ODZ-iZN_NIDihDhz-13" value="" style="rounded=0;whiteSpace=wrap;html=1;container=0;fillColor=#F7CFD3;" vertex="1" parent="XKu2ODZ-iZN_NIDihDhz-12">
          <mxGeometry width="40" height="40.357781753130595" as="geometry" />
        </mxCell>
        <mxCell id="XKu2ODZ-iZN_NIDihDhz-14" value="" style="rounded=0;whiteSpace=wrap;html=1;container=0;fillColor=#F7CFD3;" vertex="1" parent="XKu2ODZ-iZN_NIDihDhz-12">
          <mxGeometry y="39.92844364937395" width="40" height="40.357781753130595" as="geometry" />
        </mxCell>
        <mxCell id="XKu2ODZ-iZN_NIDihDhz-15" value="&lt;span style=&quot;white-space: pre;&quot;&gt;&lt;br&gt;&lt;/span&gt;" style="rounded=0;whiteSpace=wrap;html=1;container=0;fillColor=#F7CFD3;" vertex="1" parent="XKu2ODZ-iZN_NIDihDhz-12">
          <mxGeometry width="40" height="40.357781753130595" as="geometry" />
        </mxCell>
        <mxCell id="XKu2ODZ-iZN_NIDihDhz-16" value="" style="rounded=0;whiteSpace=wrap;html=1;container=0;fillColor=#F7CFD3;" vertex="1" parent="XKu2ODZ-iZN_NIDihDhz-12">
          <mxGeometry y="79.8568872987478" width="40" height="40.357781753130595" as="geometry" />
        </mxCell>
        <mxCell id="XKu2ODZ-iZN_NIDihDhz-17" style="edgeStyle=none;rounded=0;orthogonalLoop=1;jettySize=auto;html=1;exitX=1;exitY=0;exitDx=0;exitDy=0;" edge="1" parent="XKu2ODZ-iZN_NIDihDhz-12" source="XKu2ODZ-iZN_NIDihDhz-18">
          <mxGeometry relative="1" as="geometry">
            <mxPoint x="130" y="120" as="targetPoint" />
          </mxGeometry>
        </mxCell>
        <mxCell id="XKu2ODZ-iZN_NIDihDhz-18" value="" style="rounded=0;whiteSpace=wrap;html=1;container=0;fillColor=#F7CFD3;" vertex="1" parent="XKu2ODZ-iZN_NIDihDhz-12">
          <mxGeometry y="119.78533094812163" width="40" height="40.357781753130595" as="geometry" />
        </mxCell>
        <mxCell id="XKu2ODZ-iZN_NIDihDhz-19" value="" style="rounded=0;whiteSpace=wrap;html=1;container=0;fillColor=#F7CFD3;" vertex="1" parent="XKu2ODZ-iZN_NIDihDhz-12">
          <mxGeometry y="159.71377459749553" width="40" height="40.357781753130595" as="geometry" />
        </mxCell>
        <mxCell id="XKu2ODZ-iZN_NIDihDhz-20" value="" style="rounded=0;whiteSpace=wrap;html=1;container=0;fillColor=#F7CFD3;" vertex="1" parent="XKu2ODZ-iZN_NIDihDhz-12">
          <mxGeometry y="199.64221824686942" width="40" height="40.357781753130595" as="geometry" />
        </mxCell>
        <mxCell id="XKu2ODZ-iZN_NIDihDhz-21" value="" style="rounded=0;whiteSpace=wrap;html=1;container=0;fillColor=#F7CFD3;" vertex="1" parent="XKu2ODZ-iZN_NIDihDhz-12">
          <mxGeometry y="159.71377459749553" width="40" height="40.357781753130595" as="geometry" />
        </mxCell>
        <mxCell id="XKu2ODZ-iZN_NIDihDhz-22" style="edgeStyle=none;rounded=0;orthogonalLoop=1;jettySize=auto;html=1;entryX=0;entryY=0.5;entryDx=0;entryDy=0;exitX=1;exitY=0.5;exitDx=0;exitDy=0;" edge="1" parent="1" source="XKu2ODZ-iZN_NIDihDhz-77" target="XKu2ODZ-iZN_NIDihDhz-29">
          <mxGeometry relative="1" as="geometry">
            <mxPoint x="650" y="-342.1666666666665" as="targetPoint" />
            <mxPoint x="500" y="-255" as="sourcePoint" />
          </mxGeometry>
        </mxCell>
        <mxCell id="XKu2ODZ-iZN_NIDihDhz-24" style="edgeStyle=none;rounded=0;orthogonalLoop=1;jettySize=auto;html=1;exitX=1;exitY=1;exitDx=0;exitDy=0;entryX=0;entryY=0.5;entryDx=0;entryDy=0;" edge="1" parent="1" source="XKu2ODZ-iZN_NIDihDhz-6" target="XKu2ODZ-iZN_NIDihDhz-53">
          <mxGeometry relative="1" as="geometry">
            <mxPoint x="220" y="-590" as="targetPoint" />
          </mxGeometry>
        </mxCell>
        <mxCell id="XKu2ODZ-iZN_NIDihDhz-25" style="edgeStyle=none;rounded=0;orthogonalLoop=1;jettySize=auto;html=1;entryX=0;entryY=0;entryDx=0;entryDy=0;exitX=1;exitY=0.5;exitDx=0;exitDy=0;" edge="1" parent="1" source="XKu2ODZ-iZN_NIDihDhz-53" target="XKu2ODZ-iZN_NIDihDhz-18">
          <mxGeometry relative="1" as="geometry">
            <mxPoint x="530" y="-590" as="sourcePoint" />
          </mxGeometry>
        </mxCell>
        <mxCell id="XKu2ODZ-iZN_NIDihDhz-26" value="输出向量" style="rounded=0;whiteSpace=wrap;html=1;strokeColor=none;fillColor=none;" vertex="1" parent="1">
          <mxGeometry x="650" y="-580" width="83" height="60" as="geometry" />
        </mxCell>
        <mxCell id="XKu2ODZ-iZN_NIDihDhz-27" value="语义表示" style="rounded=0;whiteSpace=wrap;html=1;strokeColor=none;fillColor=none;" vertex="1" parent="1">
          <mxGeometry x="540" y="-480" width="83" height="60" as="geometry" />
        </mxCell>
        <mxCell id="XKu2ODZ-iZN_NIDihDhz-28" style="edgeStyle=none;rounded=0;orthogonalLoop=1;jettySize=auto;html=1;exitX=1;exitY=0.5;exitDx=0;exitDy=0;" edge="1" parent="1" source="XKu2ODZ-iZN_NIDihDhz-29">
          <mxGeometry relative="1" as="geometry">
            <mxPoint x="800" y="-285" as="targetPoint" />
          </mxGeometry>
        </mxCell>
        <mxCell id="XKu2ODZ-iZN_NIDihDhz-29" value="本体知识产物" style="rounded=0;whiteSpace=wrap;html=1;strokeColor=none;fillColor=none;" vertex="1" parent="1">
          <mxGeometry x="640" y="-307.5" width="80" height="45" as="geometry" />
        </mxCell>
        <mxCell id="XKu2ODZ-iZN_NIDihDhz-30" value="意图槽位邻接矩阵" style="rounded=0;whiteSpace=wrap;html=1;strokeColor=none;fillColor=none;" vertex="1" parent="1">
          <mxGeometry x="88.5" y="-210" width="83" height="60" as="geometry" />
        </mxCell>
        <mxCell id="XKu2ODZ-iZN_NIDihDhz-31" style="edgeStyle=orthogonalEdgeStyle;rounded=0;orthogonalLoop=1;jettySize=auto;html=1;exitX=0.5;exitY=1;exitDx=0;exitDy=0;entryX=0.5;entryY=0;entryDx=0;entryDy=0;endArrow=none;endFill=0;" edge="1" parent="1" source="XKu2ODZ-iZN_NIDihDhz-20" target="XKu2ODZ-iZN_NIDihDhz-29">
          <mxGeometry relative="1" as="geometry">
            <Array as="points">
              <mxPoint x="600" y="-410" />
              <mxPoint x="682" y="-410" />
            </Array>
          </mxGeometry>
        </mxCell>
        <mxCell id="XKu2ODZ-iZN_NIDihDhz-32" value="" style="group" vertex="1" connectable="0" parent="1">
          <mxGeometry x="97.5" y="-360" width="65" height="150" as="geometry" />
        </mxCell>
        <mxCell id="XKu2ODZ-iZN_NIDihDhz-33" value="" style="rounded=0;whiteSpace=wrap;html=1;fillColor=none;" vertex="1" parent="XKu2ODZ-iZN_NIDihDhz-32">
          <mxGeometry width="65" height="150" as="geometry" />
        </mxCell>
        <mxCell id="XKu2ODZ-iZN_NIDihDhz-34" value="s" style="ellipse;whiteSpace=wrap;html=1;aspect=fixed;" vertex="1" parent="XKu2ODZ-iZN_NIDihDhz-32">
          <mxGeometry x="10" y="9.5" width="16" height="16" as="geometry" />
        </mxCell>
        <mxCell id="XKu2ODZ-iZN_NIDihDhz-35" value="s" style="ellipse;whiteSpace=wrap;html=1;aspect=fixed;" vertex="1" parent="XKu2ODZ-iZN_NIDihDhz-32">
          <mxGeometry x="10" y="67" width="16" height="16" as="geometry" />
        </mxCell>
        <mxCell id="XKu2ODZ-iZN_NIDihDhz-36" value="s" style="ellipse;whiteSpace=wrap;html=1;aspect=fixed;" vertex="1" parent="XKu2ODZ-iZN_NIDihDhz-32">
          <mxGeometry x="10" y="129.5" width="16" height="16" as="geometry" />
        </mxCell>
        <mxCell id="XKu2ODZ-iZN_NIDihDhz-37" value="s" style="ellipse;whiteSpace=wrap;html=1;aspect=fixed;" vertex="1" parent="XKu2ODZ-iZN_NIDihDhz-32">
          <mxGeometry x="10" y="99.5" width="16" height="16" as="geometry" />
        </mxCell>
        <mxCell id="XKu2ODZ-iZN_NIDihDhz-38" value="s" style="ellipse;whiteSpace=wrap;html=1;aspect=fixed;" vertex="1" parent="XKu2ODZ-iZN_NIDihDhz-32">
          <mxGeometry x="10" y="39.5" width="16" height="16" as="geometry" />
        </mxCell>
        <object label="I" id="XKu2ODZ-iZN_NIDihDhz-39">
          <mxCell style="ellipse;whiteSpace=wrap;html=1;aspect=fixed;" vertex="1" parent="XKu2ODZ-iZN_NIDihDhz-32">
            <mxGeometry x="40" y="25.5" width="16" height="16" as="geometry" />
          </mxCell>
        </object>
        <mxCell id="XKu2ODZ-iZN_NIDihDhz-40" style="edgeStyle=none;rounded=0;orthogonalLoop=1;jettySize=auto;html=1;exitX=1;exitY=0.5;exitDx=0;exitDy=0;entryX=0;entryY=0.5;entryDx=0;entryDy=0;endArrow=none;endFill=0;" edge="1" parent="XKu2ODZ-iZN_NIDihDhz-32" source="XKu2ODZ-iZN_NIDihDhz-34" target="XKu2ODZ-iZN_NIDihDhz-39">
          <mxGeometry relative="1" as="geometry" />
        </mxCell>
        <mxCell id="XKu2ODZ-iZN_NIDihDhz-41" style="edgeStyle=none;rounded=0;orthogonalLoop=1;jettySize=auto;html=1;exitX=1;exitY=0.5;exitDx=0;exitDy=0;entryX=0;entryY=0.5;entryDx=0;entryDy=0;endArrow=none;endFill=0;" edge="1" parent="XKu2ODZ-iZN_NIDihDhz-32" source="XKu2ODZ-iZN_NIDihDhz-36" target="XKu2ODZ-iZN_NIDihDhz-39">
          <mxGeometry relative="1" as="geometry" />
        </mxCell>
        <mxCell id="XKu2ODZ-iZN_NIDihDhz-42" style="edgeStyle=none;rounded=0;orthogonalLoop=1;jettySize=auto;html=1;exitX=1;exitY=0.5;exitDx=0;exitDy=0;entryX=0;entryY=0.5;entryDx=0;entryDy=0;endArrow=none;endFill=0;" edge="1" parent="XKu2ODZ-iZN_NIDihDhz-32" source="XKu2ODZ-iZN_NIDihDhz-38" target="XKu2ODZ-iZN_NIDihDhz-39">
          <mxGeometry relative="1" as="geometry" />
        </mxCell>
        <mxCell id="XKu2ODZ-iZN_NIDihDhz-43" value="I" style="ellipse;whiteSpace=wrap;html=1;aspect=fixed;" vertex="1" parent="XKu2ODZ-iZN_NIDihDhz-32">
          <mxGeometry x="40" y="55.5" width="16" height="16" as="geometry" />
        </mxCell>
        <mxCell id="XKu2ODZ-iZN_NIDihDhz-44" style="edgeStyle=none;rounded=0;orthogonalLoop=1;jettySize=auto;html=1;exitX=1;exitY=0.5;exitDx=0;exitDy=0;entryX=0;entryY=0;entryDx=0;entryDy=0;endArrow=none;endFill=0;" edge="1" parent="XKu2ODZ-iZN_NIDihDhz-32" source="XKu2ODZ-iZN_NIDihDhz-34" target="XKu2ODZ-iZN_NIDihDhz-43">
          <mxGeometry relative="1" as="geometry" />
        </mxCell>
        <mxCell id="XKu2ODZ-iZN_NIDihDhz-45" style="edgeStyle=none;rounded=0;orthogonalLoop=1;jettySize=auto;html=1;exitX=1;exitY=0.5;exitDx=0;exitDy=0;entryX=0;entryY=0.5;entryDx=0;entryDy=0;endArrow=none;endFill=0;" edge="1" parent="XKu2ODZ-iZN_NIDihDhz-32" source="XKu2ODZ-iZN_NIDihDhz-35" target="XKu2ODZ-iZN_NIDihDhz-43">
          <mxGeometry relative="1" as="geometry" />
        </mxCell>
        <mxCell id="XKu2ODZ-iZN_NIDihDhz-46" value="I" style="ellipse;whiteSpace=wrap;html=1;aspect=fixed;" vertex="1" parent="XKu2ODZ-iZN_NIDihDhz-32">
          <mxGeometry x="40" y="83.5" width="16" height="16" as="geometry" />
        </mxCell>
        <mxCell id="XKu2ODZ-iZN_NIDihDhz-47" value="I" style="ellipse;whiteSpace=wrap;html=1;aspect=fixed;" vertex="1" parent="XKu2ODZ-iZN_NIDihDhz-32">
          <mxGeometry x="40" y="115.5" width="16" height="16" as="geometry" />
        </mxCell>
        <mxCell id="XKu2ODZ-iZN_NIDihDhz-48" style="edgeStyle=none;rounded=0;orthogonalLoop=1;jettySize=auto;html=1;exitX=1;exitY=0.5;exitDx=0;exitDy=0;entryX=0;entryY=0.5;entryDx=0;entryDy=0;endArrow=none;endFill=0;" edge="1" parent="XKu2ODZ-iZN_NIDihDhz-32" source="XKu2ODZ-iZN_NIDihDhz-36" target="XKu2ODZ-iZN_NIDihDhz-47">
          <mxGeometry relative="1" as="geometry" />
        </mxCell>
        <mxCell id="XKu2ODZ-iZN_NIDihDhz-49" style="edgeStyle=none;rounded=0;orthogonalLoop=1;jettySize=auto;html=1;exitX=1;exitY=0.5;exitDx=0;exitDy=0;entryX=0;entryY=0.5;entryDx=0;entryDy=0;endArrow=none;endFill=0;" edge="1" parent="XKu2ODZ-iZN_NIDihDhz-32" source="XKu2ODZ-iZN_NIDihDhz-37" target="XKu2ODZ-iZN_NIDihDhz-47">
          <mxGeometry relative="1" as="geometry" />
        </mxCell>
        <mxCell id="XKu2ODZ-iZN_NIDihDhz-53" value="中文预训练模&lt;br&gt;型ERNIE" style="rounded=0;whiteSpace=wrap;html=1;fillColor=#C2DDF8;" vertex="1" parent="1">
          <mxGeometry x="230" y="-610" width="220" height="120" as="geometry" />
        </mxCell>
        <mxCell id="XKu2ODZ-iZN_NIDihDhz-54" value="用户输入" style="rounded=0;whiteSpace=wrap;html=1;strokeColor=none;fillColor=none;" vertex="1" parent="1">
          <mxGeometry x="130" y="-430" width="83" height="60" as="geometry" />
        </mxCell>
        <mxCell id="XKu2ODZ-iZN_NIDihDhz-55" value="图神经网络" style="rounded=0;whiteSpace=wrap;html=1;strokeColor=none;fillColor=none;" vertex="1" parent="1">
          <mxGeometry x="227" y="-410" width="83" height="60" as="geometry" />
        </mxCell>
        <mxCell id="XKu2ODZ-iZN_NIDihDhz-50" style="edgeStyle=none;rounded=0;orthogonalLoop=1;jettySize=auto;html=1;exitX=1;exitY=0.5;exitDx=0;exitDy=0;entryX=0;entryY=0.5;entryDx=0;entryDy=0;" edge="1" parent="1" source="XKu2ODZ-iZN_NIDihDhz-33" target="XKu2ODZ-iZN_NIDihDhz-63">
          <mxGeometry relative="1" as="geometry">
            <mxPoint x="220" y="-295" as="targetPoint" />
          </mxGeometry>
        </mxCell>
        <mxCell id="XKu2ODZ-iZN_NIDihDhz-88" value="" style="group" vertex="1" connectable="0" parent="1">
          <mxGeometry x="230" y="-360" width="150" height="150" as="geometry" />
        </mxCell>
        <mxCell id="XKu2ODZ-iZN_NIDihDhz-60" value="" style="rounded=1;whiteSpace=wrap;html=1;fillColor=#FAE1B8;" vertex="1" parent="XKu2ODZ-iZN_NIDihDhz-88">
          <mxGeometry y="10" width="70" height="140" as="geometry" />
        </mxCell>
        <mxCell id="XKu2ODZ-iZN_NIDihDhz-61" value="&lt;font style=&quot;font-size: 8px;&quot;&gt;Relu&lt;/font&gt;" style="rounded=1;whiteSpace=wrap;html=1;fillColor=#E0E0E0;" vertex="1" parent="XKu2ODZ-iZN_NIDihDhz-88">
          <mxGeometry x="90" y="5" width="20" height="140" as="geometry" />
        </mxCell>
        <mxCell id="XKu2ODZ-iZN_NIDihDhz-62" value="&lt;font style=&quot;font-size: 8px;&quot;&gt;Drop&lt;br&gt;out&lt;/font&gt;" style="rounded=1;whiteSpace=wrap;html=1;fillColor=#9E9E9E;" vertex="1" parent="XKu2ODZ-iZN_NIDihDhz-88">
          <mxGeometry x="130" y="5" width="20" height="140" as="geometry" />
        </mxCell>
        <mxCell id="XKu2ODZ-iZN_NIDihDhz-73" style="edgeStyle=orthogonalEdgeStyle;rounded=0;orthogonalLoop=1;jettySize=auto;html=1;exitX=1;exitY=0.5;exitDx=0;exitDy=0;" edge="1" parent="XKu2ODZ-iZN_NIDihDhz-88" source="XKu2ODZ-iZN_NIDihDhz-61" target="XKu2ODZ-iZN_NIDihDhz-62">
          <mxGeometry relative="1" as="geometry" />
        </mxCell>
        <mxCell id="XKu2ODZ-iZN_NIDihDhz-63" value="X" style="ellipse;whiteSpace=wrap;html=1;aspect=fixed;" vertex="1" parent="XKu2ODZ-iZN_NIDihDhz-88">
          <mxGeometry x="10" y="65" width="20" height="20" as="geometry" />
        </mxCell>
        <mxCell id="XKu2ODZ-iZN_NIDihDhz-72" style="edgeStyle=orthogonalEdgeStyle;rounded=0;orthogonalLoop=1;jettySize=auto;html=1;exitX=1;exitY=0.5;exitDx=0;exitDy=0;entryX=0;entryY=0.5;entryDx=0;entryDy=0;" edge="1" parent="XKu2ODZ-iZN_NIDihDhz-88" source="XKu2ODZ-iZN_NIDihDhz-64" target="XKu2ODZ-iZN_NIDihDhz-61">
          <mxGeometry relative="1" as="geometry" />
        </mxCell>
        <mxCell id="XKu2ODZ-iZN_NIDihDhz-64" value="＋" style="ellipse;whiteSpace=wrap;html=1;aspect=fixed;" vertex="1" parent="XKu2ODZ-iZN_NIDihDhz-88">
          <mxGeometry x="40" y="65" width="20" height="20" as="geometry" />
        </mxCell>
        <mxCell id="XKu2ODZ-iZN_NIDihDhz-71" style="edgeStyle=orthogonalEdgeStyle;rounded=0;orthogonalLoop=1;jettySize=auto;html=1;exitX=1;exitY=0.5;exitDx=0;exitDy=0;entryX=0;entryY=0.5;entryDx=0;entryDy=0;" edge="1" parent="XKu2ODZ-iZN_NIDihDhz-88" source="XKu2ODZ-iZN_NIDihDhz-63" target="XKu2ODZ-iZN_NIDihDhz-64">
          <mxGeometry relative="1" as="geometry" />
        </mxCell>
        <mxCell id="XKu2ODZ-iZN_NIDihDhz-66" value="&lt;font style=&quot;font-size: 9px;&quot;&gt;graph_conv&lt;/font&gt;" style="rounded=0;whiteSpace=wrap;html=1;strokeColor=none;fillColor=none;" vertex="1" parent="XKu2ODZ-iZN_NIDihDhz-88">
          <mxGeometry x="10" width="70" height="30" as="geometry" />
        </mxCell>
        <mxCell id="XKu2ODZ-iZN_NIDihDhz-69" style="edgeStyle=orthogonalEdgeStyle;rounded=0;orthogonalLoop=1;jettySize=auto;html=1;exitX=0.5;exitY=1;exitDx=0;exitDy=0;entryX=0.5;entryY=0;entryDx=0;entryDy=0;" edge="1" parent="XKu2ODZ-iZN_NIDihDhz-88" source="XKu2ODZ-iZN_NIDihDhz-67" target="XKu2ODZ-iZN_NIDihDhz-63">
          <mxGeometry relative="1" as="geometry" />
        </mxCell>
        <mxCell id="XKu2ODZ-iZN_NIDihDhz-67" value="&lt;font style=&quot;font-size: 10px;&quot;&gt;W&lt;/font&gt;" style="rounded=0;whiteSpace=wrap;html=1;strokeColor=none;fillColor=none;" vertex="1" parent="XKu2ODZ-iZN_NIDihDhz-88">
          <mxGeometry x="10" y="20" width="20" height="20" as="geometry" />
        </mxCell>
        <mxCell id="XKu2ODZ-iZN_NIDihDhz-70" style="edgeStyle=orthogonalEdgeStyle;rounded=0;orthogonalLoop=1;jettySize=auto;html=1;exitX=0.5;exitY=0;exitDx=0;exitDy=0;entryX=0.5;entryY=1;entryDx=0;entryDy=0;" edge="1" parent="XKu2ODZ-iZN_NIDihDhz-88" source="XKu2ODZ-iZN_NIDihDhz-68" target="XKu2ODZ-iZN_NIDihDhz-64">
          <mxGeometry relative="1" as="geometry" />
        </mxCell>
        <mxCell id="XKu2ODZ-iZN_NIDihDhz-68" value="&lt;font style=&quot;font-size: 10px;&quot;&gt;b&lt;br&gt;&lt;/font&gt;" style="rounded=0;whiteSpace=wrap;html=1;strokeColor=none;fillColor=none;" vertex="1" parent="XKu2ODZ-iZN_NIDihDhz-88">
          <mxGeometry x="40" y="110" width="20" height="20" as="geometry" />
        </mxCell>
        <mxCell id="XKu2ODZ-iZN_NIDihDhz-89" value="" style="group" vertex="1" connectable="0" parent="1">
          <mxGeometry x="430" y="-360" width="150" height="150" as="geometry" />
        </mxCell>
        <mxCell id="XKu2ODZ-iZN_NIDihDhz-74" value="" style="rounded=1;whiteSpace=wrap;html=1;fillColor=#FAE1B8;container=0;" vertex="1" parent="XKu2ODZ-iZN_NIDihDhz-89">
          <mxGeometry y="10" width="70" height="140" as="geometry" />
        </mxCell>
        <mxCell id="XKu2ODZ-iZN_NIDihDhz-76" value="&lt;font style=&quot;font-size: 8px;&quot;&gt;Relu&lt;/font&gt;" style="rounded=1;whiteSpace=wrap;html=1;fillColor=#E0E0E0;container=0;" vertex="1" parent="XKu2ODZ-iZN_NIDihDhz-89">
          <mxGeometry x="90" y="5" width="20" height="140" as="geometry" />
        </mxCell>
        <mxCell id="XKu2ODZ-iZN_NIDihDhz-77" value="&lt;font style=&quot;font-size: 8px;&quot;&gt;Drop&lt;br&gt;out&lt;/font&gt;" style="rounded=1;whiteSpace=wrap;html=1;fillColor=#9E9E9E;container=0;" vertex="1" parent="XKu2ODZ-iZN_NIDihDhz-89">
          <mxGeometry x="130" y="5" width="20" height="140" as="geometry" />
        </mxCell>
        <mxCell id="XKu2ODZ-iZN_NIDihDhz-75" style="edgeStyle=orthogonalEdgeStyle;rounded=0;orthogonalLoop=1;jettySize=auto;html=1;exitX=1;exitY=0.5;exitDx=0;exitDy=0;" edge="1" parent="XKu2ODZ-iZN_NIDihDhz-89" source="XKu2ODZ-iZN_NIDihDhz-76" target="XKu2ODZ-iZN_NIDihDhz-77">
          <mxGeometry relative="1" as="geometry" />
        </mxCell>
        <mxCell id="XKu2ODZ-iZN_NIDihDhz-79" value="X" style="ellipse;whiteSpace=wrap;html=1;aspect=fixed;container=0;" vertex="1" parent="XKu2ODZ-iZN_NIDihDhz-89">
          <mxGeometry x="10" y="65" width="20" height="20" as="geometry" />
        </mxCell>
        <mxCell id="XKu2ODZ-iZN_NIDihDhz-80" style="edgeStyle=orthogonalEdgeStyle;rounded=0;orthogonalLoop=1;jettySize=auto;html=1;exitX=1;exitY=0.5;exitDx=0;exitDy=0;entryX=0;entryY=0.5;entryDx=0;entryDy=0;" edge="1" parent="XKu2ODZ-iZN_NIDihDhz-89" source="XKu2ODZ-iZN_NIDihDhz-81" target="XKu2ODZ-iZN_NIDihDhz-76">
          <mxGeometry relative="1" as="geometry" />
        </mxCell>
        <mxCell id="XKu2ODZ-iZN_NIDihDhz-81" value="＋" style="ellipse;whiteSpace=wrap;html=1;aspect=fixed;container=0;" vertex="1" parent="XKu2ODZ-iZN_NIDihDhz-89">
          <mxGeometry x="40" y="65" width="20" height="20" as="geometry" />
        </mxCell>
        <mxCell id="XKu2ODZ-iZN_NIDihDhz-78" style="edgeStyle=orthogonalEdgeStyle;rounded=0;orthogonalLoop=1;jettySize=auto;html=1;exitX=1;exitY=0.5;exitDx=0;exitDy=0;entryX=0;entryY=0.5;entryDx=0;entryDy=0;" edge="1" parent="XKu2ODZ-iZN_NIDihDhz-89" source="XKu2ODZ-iZN_NIDihDhz-79" target="XKu2ODZ-iZN_NIDihDhz-81">
          <mxGeometry relative="1" as="geometry" />
        </mxCell>
        <mxCell id="XKu2ODZ-iZN_NIDihDhz-82" value="&lt;font style=&quot;font-size: 9px;&quot;&gt;graph_conv&lt;/font&gt;" style="rounded=0;whiteSpace=wrap;html=1;strokeColor=none;fillColor=none;container=0;" vertex="1" parent="XKu2ODZ-iZN_NIDihDhz-89">
          <mxGeometry x="10" width="70" height="30" as="geometry" />
        </mxCell>
        <mxCell id="XKu2ODZ-iZN_NIDihDhz-83" style="edgeStyle=orthogonalEdgeStyle;rounded=0;orthogonalLoop=1;jettySize=auto;html=1;exitX=0.5;exitY=1;exitDx=0;exitDy=0;entryX=0.5;entryY=0;entryDx=0;entryDy=0;" edge="1" parent="XKu2ODZ-iZN_NIDihDhz-89" source="XKu2ODZ-iZN_NIDihDhz-84" target="XKu2ODZ-iZN_NIDihDhz-79">
          <mxGeometry relative="1" as="geometry" />
        </mxCell>
        <mxCell id="XKu2ODZ-iZN_NIDihDhz-84" value="&lt;font style=&quot;font-size: 10px;&quot;&gt;W&lt;/font&gt;" style="rounded=0;whiteSpace=wrap;html=1;strokeColor=none;fillColor=none;container=0;" vertex="1" parent="XKu2ODZ-iZN_NIDihDhz-89">
          <mxGeometry x="10" y="20" width="20" height="20" as="geometry" />
        </mxCell>
        <mxCell id="XKu2ODZ-iZN_NIDihDhz-85" style="edgeStyle=orthogonalEdgeStyle;rounded=0;orthogonalLoop=1;jettySize=auto;html=1;exitX=0.5;exitY=0;exitDx=0;exitDy=0;entryX=0.5;entryY=1;entryDx=0;entryDy=0;" edge="1" parent="XKu2ODZ-iZN_NIDihDhz-89" source="XKu2ODZ-iZN_NIDihDhz-86" target="XKu2ODZ-iZN_NIDihDhz-81">
          <mxGeometry relative="1" as="geometry" />
        </mxCell>
        <mxCell id="XKu2ODZ-iZN_NIDihDhz-86" value="&lt;font style=&quot;font-size: 10px;&quot;&gt;b&lt;br&gt;&lt;/font&gt;" style="rounded=0;whiteSpace=wrap;html=1;strokeColor=none;fillColor=none;container=0;" vertex="1" parent="XKu2ODZ-iZN_NIDihDhz-89">
          <mxGeometry x="40" y="110" width="20" height="20" as="geometry" />
        </mxCell>
        <mxCell id="XKu2ODZ-iZN_NIDihDhz-91" style="edgeStyle=orthogonalEdgeStyle;rounded=0;orthogonalLoop=1;jettySize=auto;html=1;exitX=1;exitY=0.5;exitDx=0;exitDy=0;entryX=-0.016;entryY=0.464;entryDx=0;entryDy=0;entryPerimeter=0;endArrow=none;endFill=0;" edge="1" parent="1" source="XKu2ODZ-iZN_NIDihDhz-62" target="XKu2ODZ-iZN_NIDihDhz-74">
          <mxGeometry relative="1" as="geometry" />
        </mxCell>
      </root>
    </mxGraphModel>
  </diagram>
</mxfile>
